<svg width="30" height="31" viewBox="0 0 30 31" fill="none" xmlns="http://www.w3.org/2000/svg">
<path d="M16.6321 2.05457C16.331 1.41011 15.6947 1 14.9959 1C14.2971 1 13.6665 1.41011 13.3597 2.05457L9.70671 9.80566L1.5485 11.0477C0.866751 11.1532 0.29863 11.6453 0.0884249 12.319C-0.12178 12.9928 0.0486563 13.7369 0.53724 14.2348L6.45706 20.2752L5.05948 28.8113C4.94586 29.5144 5.22992 30.2292 5.79236 30.6451C6.3548 31.0611 7.09904 31.1138 7.71261 30.7799L15.0016 26.7666L22.2906 30.7799C22.9042 31.1138 23.6484 31.0669 24.2108 30.6451C24.7733 30.2233 25.0573 29.5144 24.9437 28.8113L23.5405 20.2752L29.4603 14.2348C29.9489 13.7369 30.125 12.9928 29.9091 12.319C29.6932 11.6453 29.1308 11.1532 28.449 11.0477L20.2851 9.80566L16.6321 2.05457Z" fill="#FFD601"/>
</svg>
